<svg width="336" height="480" viewBox="0 0 336 480" fill="none" xmlns="http://www.w3.org/2000/svg" xmlns:xlink="http://www.w3.org/1999/xlink">
<g clip-path="url(#clip0_25_16671)">
<rect width="336" height="480" rx="16" fill="#C92ADB"></rect>
<image x="-328" y="0" width="992" height="480" href="./card-front-de-texture.jpg" xlink:href="./card-front-de-texture.jpg" style="mix-blend-mode:screen"></image>
<rect width="336" height="72" fill="url(#paint0_linear_25_16671)"></rect>
<g filter="url(#filter0_d_25_16671)">
<path d="M28.872 40.36H31.488C32 40.36 32.36 40.256 32.568 40.048C32.792 39.824 32.904 39.456 32.904 38.944V31.624C32.904 31.112 32.792 30.752 32.568 30.544C32.36 30.32 32 30.208 31.488 30.208H28.872C28.696 30.208 28.608 30.296 28.608 30.472V40.096C28.608 40.272 28.696 40.36 28.872 40.36ZM25.56 42.496V28.072C25.56 27.736 25.728 27.568 26.064 27.568H31.992C33.24 27.568 34.208 27.912 34.896 28.6C35.6 29.272 35.952 30.232 35.952 31.48V39.088C35.952 40.336 35.6 41.304 34.896 41.992C34.208 42.664 33.24 43 31.992 43H26.064C25.728 43 25.56 42.832 25.56 42.496ZM47.6096 43H42.3056C41.0416 43 40.0656 42.664 39.3776 41.992C38.6896 41.32 38.3456 40.352 38.3456 39.088V34.672C38.3456 33.408 38.6896 32.44 39.3776 31.768C40.0656 31.096 41.0416 30.76 42.3056 30.76H44.2016C45.4656 30.76 46.4416 31.096 47.1296 31.768C47.8176 32.44 48.1616 33.408 48.1616 34.672V37.72C48.1616 38.056 47.9936 38.224 47.6576 38.224H41.6336C41.4416 38.224 41.3456 38.312 41.3456 38.488V39.016C41.3456 39.512 41.4496 39.872 41.6576 40.096C41.8816 40.304 42.2496 40.408 42.7616 40.408H47.6096C47.9456 40.408 48.1136 40.584 48.1136 40.936V42.52C48.1136 42.696 48.0736 42.824 47.9936 42.904C47.9296 42.968 47.8016 43 47.6096 43ZM41.6336 36.184H44.8976C45.0736 36.184 45.1616 36.096 45.1616 35.92V34.768C45.1616 34.256 45.0576 33.896 44.8496 33.688C44.6416 33.48 44.2816 33.376 43.7696 33.376H42.7616C42.2496 33.376 41.8896 33.48 41.6816 33.688C41.4736 33.896 41.3696 34.256 41.3696 34.768V35.92C41.3696 36.096 41.4576 36.184 41.6336 36.184ZM55.077 43H50.517C50.197 43 50.037 42.832 50.037 42.496V40.96C50.037 40.784 50.069 40.664 50.133 40.6C50.197 40.52 50.325 40.48 50.517 40.48H54.525C55.309 40.48 55.701 40.24 55.701 39.76V39.64C55.701 39.256 55.373 38.888 54.717 38.536L52.341 37.216C51.525 36.8 50.925 36.352 50.541 35.872C50.157 35.392 49.965 34.776 49.965 34.024C49.965 32.904 50.261 32.08 50.853 31.552C51.445 31.024 52.373 30.76 53.637 30.76H57.645C57.965 30.76 58.125 30.928 58.125 31.264V32.824C58.125 33 58.093 33.128 58.029 33.208C57.965 33.272 57.837 33.304 57.645 33.304H54.309C53.525 33.304 53.133 33.504 53.133 33.904V34.024C53.133 34.376 53.477 34.736 54.165 35.104L56.589 36.544C57.421 36.992 58.005 37.456 58.341 37.936C58.677 38.4 58.845 39.016 58.845 39.784C58.845 41.928 57.589 43 55.077 43ZM69.9924 43H64.6884C63.4244 43 62.4484 42.664 61.7604 41.992C61.0724 41.32 60.7284 40.352 60.7284 39.088V34.672C60.7284 33.408 61.0724 32.44 61.7604 31.768C62.4484 31.096 63.4244 30.76 64.6884 30.76H66.5844C67.8484 30.76 68.8244 31.096 69.5124 31.768C70.2004 32.44 70.5444 33.408 70.5444 34.672V37.72C70.5444 38.056 70.3764 38.224 70.0404 38.224H64.0164C63.8244 38.224 63.7284 38.312 63.7284 38.488V39.016C63.7284 39.512 63.8324 39.872 64.0404 40.096C64.2644 40.304 64.6324 40.408 65.1444 40.408H69.9924C70.3284 40.408 70.4964 40.584 70.4964 40.936V42.52C70.4964 42.696 70.4564 42.824 70.3764 42.904C70.3124 42.968 70.1844 43 69.9924 43ZM64.0164 36.184H67.2804C67.4564 36.184 67.5444 36.096 67.5444 35.92V34.768C67.5444 34.256 67.4404 33.896 67.2324 33.688C67.0244 33.48 66.6644 33.376 66.1524 33.376H65.1444C64.6324 33.376 64.2724 33.48 64.0644 33.688C63.8564 33.896 63.7524 34.256 63.7524 34.768V35.92C63.7524 36.096 63.8404 36.184 64.0164 36.184ZM75.3718 43H73.3318C72.9958 43 72.8278 42.832 72.8278 42.496V31.264C72.8278 30.928 72.9958 30.76 73.3318 30.76H75.3718C75.7078 30.76 75.8758 30.928 75.8758 31.264V32.08H75.9718C76.1478 31.648 76.4598 31.32 76.9078 31.096C77.3558 30.872 77.8278 30.76 78.3238 30.76H79.1878C79.5078 30.76 79.6678 30.928 79.6678 31.264V32.92C79.6678 33.112 79.6278 33.248 79.5478 33.328C79.4838 33.392 79.3638 33.416 79.1878 33.4H77.5318C76.4278 33.4 75.8758 34.024 75.8758 35.272V42.496C75.8758 42.832 75.7078 43 75.3718 43ZM81.459 33.4H80.499C80.307 33.4 80.171 33.368 80.091 33.304C80.027 33.24 79.995 33.112 79.995 32.92V31.264C79.995 30.928 80.163 30.76 80.499 30.76H81.459C81.635 30.76 81.723 30.672 81.723 30.496V28.216C81.723 27.88 81.899 27.712 82.251 27.712H84.267C84.603 27.712 84.771 27.88 84.771 28.216V30.496C84.771 30.672 84.867 30.76 85.059 30.76H86.931C87.267 30.76 87.435 30.928 87.435 31.264V32.92C87.435 33.096 87.395 33.224 87.315 33.304C87.251 33.368 87.123 33.4 86.931 33.4H85.059C84.867 33.4 84.771 33.488 84.771 33.664V38.968C84.771 39.464 84.883 39.824 85.107 40.048C85.331 40.256 85.699 40.36 86.211 40.36H87.171C87.507 40.36 87.675 40.528 87.675 40.864V42.52C87.675 42.696 87.635 42.824 87.555 42.904C87.491 42.968 87.363 43 87.171 43H85.707C84.443 43 83.459 42.664 82.755 41.992C82.067 41.32 81.723 40.36 81.723 39.112V33.664C81.723 33.488 81.635 33.4 81.459 33.4ZM103.521 43H95.6734C95.3374 43 95.1694 42.832 95.1694 42.496V28.072C95.1694 27.736 95.3374 27.568 95.6734 27.568H103.521C103.841 27.568 104.001 27.736 104.001 28.072V29.704C104.001 30.04 103.841 30.208 103.521 30.208H98.5054C98.3134 30.208 98.2174 30.296 98.2174 30.472V33.592C98.2174 33.768 98.3134 33.856 98.5054 33.856H102.609C102.945 33.856 103.113 34.024 103.113 34.36V35.992C103.113 36.328 102.945 36.496 102.609 36.496H98.5054C98.3134 36.496 98.2174 36.584 98.2174 36.76V40.096C98.2174 40.272 98.3134 40.36 98.5054 40.36H103.521C103.841 40.36 104.001 40.528 104.001 40.864V42.496C104.001 42.832 103.841 43 103.521 43ZM110.71 43H110.134C108.87 43 107.894 42.664 107.206 41.992C106.518 41.32 106.174 40.352 106.174 39.088V34.672C106.174 33.408 106.518 32.44 107.206 31.768C107.894 31.096 108.87 30.76 110.134 30.76H115.678C116.03 30.76 116.206 30.928 116.206 31.264V42.496C116.206 42.832 116.03 43 115.678 43H113.662C113.326 43 113.158 42.832 113.158 42.496V41.704H113.062C112.886 42.136 112.574 42.464 112.126 42.688C111.678 42.896 111.206 43 110.71 43ZM113.158 38.536V33.664C113.158 33.488 113.062 33.4 112.87 33.4H110.614C110.102 33.4 109.742 33.512 109.534 33.736C109.326 33.944 109.222 34.304 109.222 34.816V38.944C109.222 39.456 109.326 39.824 109.534 40.048C109.742 40.256 110.102 40.36 110.614 40.36H111.502C112.606 40.36 113.158 39.752 113.158 38.536ZM123.156 42.448H122.364C121.132 42.448 120.196 42.112 119.556 41.44C118.932 40.768 118.62 39.8 118.62 38.536V34.672C118.62 33.408 118.964 32.44 119.652 31.768C120.34 31.096 121.316 30.76 122.58 30.76H128.124C128.476 30.76 128.652 30.928 128.652 31.264V43.096C128.652 44.344 128.3 45.304 127.596 45.976C126.908 46.648 125.94 46.984 124.692 46.984H120.084C119.892 46.984 119.756 46.944 119.676 46.864C119.612 46.8 119.58 46.68 119.58 46.504V44.848C119.58 44.512 119.748 44.344 120.084 44.344H124.188C124.7 44.344 125.06 44.232 125.268 44.008C125.492 43.8 125.604 43.448 125.604 42.952V41.128H125.508C125.332 41.56 125.02 41.888 124.572 42.112C124.124 42.336 123.652 42.448 123.156 42.448ZM125.604 37.984V33.664C125.604 33.488 125.508 33.4 125.316 33.4H123.06C122.548 33.4 122.188 33.512 121.98 33.736C121.772 33.944 121.668 34.304 121.668 34.816V38.392C121.668 38.904 121.772 39.264 121.98 39.472C122.188 39.68 122.548 39.784 123.06 39.784H123.948C125.052 39.784 125.604 39.184 125.604 37.984ZM133.945 43H131.905C131.569 43 131.401 42.832 131.401 42.496V26.632C131.401 26.296 131.569 26.128 131.905 26.128H133.945C134.281 26.128 134.449 26.296 134.449 26.632V42.496C134.449 42.832 134.281 43 133.945 43ZM146.235 43H140.931C139.667 43 138.691 42.664 138.003 41.992C137.315 41.32 136.971 40.352 136.971 39.088V34.672C136.971 33.408 137.315 32.44 138.003 31.768C138.691 31.096 139.667 30.76 140.931 30.76H142.827C144.091 30.76 145.067 31.096 145.755 31.768C146.443 32.44 146.787 33.408 146.787 34.672V37.72C146.787 38.056 146.619 38.224 146.283 38.224H140.259C140.067 38.224 139.971 38.312 139.971 38.488V39.016C139.971 39.512 140.075 39.872 140.283 40.096C140.507 40.304 140.875 40.408 141.387 40.408H146.235C146.571 40.408 146.739 40.584 146.739 40.936V42.52C146.739 42.696 146.699 42.824 146.619 42.904C146.555 42.968 146.427 43 146.235 43ZM140.259 36.184H143.523C143.699 36.184 143.787 36.096 143.787 35.92V34.768C143.787 34.256 143.683 33.896 143.475 33.688C143.267 33.48 142.907 33.376 142.395 33.376H141.387C140.875 33.376 140.515 33.48 140.307 33.688C140.099 33.896 139.995 34.256 139.995 34.768V35.92C139.995 36.096 140.083 36.184 140.259 36.184Z" fill="white"></path>
</g>
<g filter="url(#filter1_d_25_16671)">
<rect x="243" y="16" width="77" height="24" rx="4" fill="#C92ADB"></rect>
<path d="M253.052 32H252.032C251.864 32 251.78 31.916 251.78 31.748V24.536C251.78 24.368 251.864 24.284 252.032 24.284H255.86C256.02 24.284 256.1 24.368 256.1 24.536V25.352C256.1 25.52 256.02 25.604 255.86 25.604H253.448C253.352 25.604 253.304 25.648 253.304 25.736V27.596C253.304 27.692 253.352 27.74 253.448 27.74H255.5C255.668 27.74 255.752 27.824 255.752 27.992V28.796C255.752 28.972 255.668 29.06 255.5 29.06H253.448C253.352 29.06 253.304 29.104 253.304 29.192V31.748C253.304 31.916 253.22 32 253.052 32ZM259.21 32H258.922C258.29 32 257.802 31.832 257.458 31.496C257.114 31.16 256.942 30.676 256.942 30.044V27.836C256.942 27.204 257.114 26.72 257.458 26.384C257.802 26.048 258.29 25.88 258.922 25.88H261.694C261.87 25.88 261.958 25.964 261.958 26.132V31.748C261.958 31.916 261.87 32 261.694 32H260.686C260.518 32 260.434 31.916 260.434 31.748V31.352H260.386C260.298 31.568 260.142 31.732 259.918 31.844C259.694 31.948 259.458 32 259.21 32ZM260.434 29.768V27.332C260.434 27.244 260.386 27.2 260.29 27.2H259.162C258.906 27.2 258.726 27.256 258.622 27.368C258.518 27.472 258.466 27.652 258.466 27.908V29.972C258.466 30.228 258.518 30.412 258.622 30.524C258.726 30.628 258.906 30.68 259.162 30.68H259.606C260.158 30.68 260.434 30.376 260.434 29.768ZM267.173 30.932V31.76C267.173 31.848 267.153 31.912 267.113 31.952C267.081 31.984 267.017 32 266.921 32H265.133C264.501 32 264.013 31.832 263.669 31.496C263.325 31.16 263.153 30.676 263.153 30.044V27.836C263.153 27.204 263.325 26.72 263.669 26.384C264.013 26.048 264.501 25.88 265.133 25.88H266.921C267.089 25.88 267.173 25.964 267.173 26.132V26.96C267.173 27.048 267.153 27.112 267.113 27.152C267.081 27.184 267.017 27.2 266.921 27.2H265.373C265.125 27.2 264.945 27.256 264.833 27.368C264.729 27.472 264.677 27.652 264.677 27.908V29.972C264.677 30.228 264.729 30.412 264.833 30.524C264.945 30.628 265.125 30.68 265.373 30.68H266.921C267.089 30.68 267.173 30.764 267.173 30.932ZM268.339 27.2H267.859C267.763 27.2 267.695 27.184 267.655 27.152C267.623 27.12 267.607 27.056 267.607 26.96V26.132C267.607 25.964 267.691 25.88 267.859 25.88H268.339C268.427 25.88 268.471 25.836 268.471 25.748V24.608C268.471 24.44 268.559 24.356 268.735 24.356H269.743C269.911 24.356 269.995 24.44 269.995 24.608V25.748C269.995 25.836 270.043 25.88 270.139 25.88H271.075C271.243 25.88 271.327 25.964 271.327 26.132V26.96C271.327 27.048 271.307 27.112 271.267 27.152C271.235 27.184 271.171 27.2 271.075 27.2H270.139C270.043 27.2 269.995 27.244 269.995 27.332V29.984C269.995 30.232 270.051 30.412 270.163 30.524C270.275 30.628 270.459 30.68 270.715 30.68H271.195C271.363 30.68 271.447 30.764 271.447 30.932V31.76C271.447 31.848 271.427 31.912 271.387 31.952C271.355 31.984 271.291 32 271.195 32H270.463C269.831 32 269.339 31.832 268.987 31.496C268.643 31.16 268.471 30.68 268.471 30.056V27.332C268.471 27.244 268.427 27.2 268.339 27.2ZM275.365 32H274.297C273.665 32 273.177 31.832 272.833 31.496C272.489 31.16 272.317 30.676 272.317 30.044V27.836C272.317 27.204 272.489 26.72 272.833 26.384C273.177 26.048 273.665 25.88 274.297 25.88H275.365C275.989 25.88 276.473 26.052 276.817 26.396C277.169 26.732 277.345 27.212 277.345 27.836V30.044C277.345 30.668 277.169 31.152 276.817 31.496C276.473 31.832 275.989 32 275.365 32ZM274.525 30.692H275.137C275.393 30.692 275.573 30.64 275.677 30.536C275.789 30.432 275.845 30.252 275.845 29.996V27.884C275.845 27.628 275.789 27.448 275.677 27.344C275.573 27.24 275.393 27.188 275.137 27.188H274.525C274.269 27.188 274.089 27.24 273.985 27.344C273.881 27.448 273.829 27.628 273.829 27.884V29.996C273.829 30.252 273.881 30.432 273.985 30.536C274.089 30.64 274.269 30.692 274.525 30.692ZM279.815 32H278.795C278.627 32 278.543 31.916 278.543 31.748V26.132C278.543 25.964 278.627 25.88 278.795 25.88H279.815C279.983 25.88 280.067 25.964 280.067 26.132V26.54H280.115C280.203 26.324 280.359 26.16 280.583 26.048C280.807 25.936 281.043 25.88 281.291 25.88H281.723C281.883 25.88 281.963 25.964 281.963 26.132V26.96C281.963 27.056 281.943 27.124 281.903 27.164C281.871 27.196 281.811 27.208 281.723 27.2H280.895C280.343 27.2 280.067 27.512 280.067 28.136V31.748C280.067 31.916 279.983 32 279.815 32ZM283.722 34.028H282.954C282.794 34.028 282.714 33.94 282.714 33.764V32.96C282.714 32.784 282.794 32.696 282.954 32.696H283.206C283.71 32.696 284.05 32.624 284.226 32.48C284.41 32.344 284.55 32.076 284.646 31.676H284.01C283.858 31.676 283.758 31.592 283.71 31.424L282.306 26.132C282.258 25.964 282.318 25.88 282.486 25.88H283.554C283.714 25.88 283.814 25.964 283.854 26.132L284.886 30.56H284.934L285.954 26.132C285.986 25.964 286.086 25.88 286.254 25.88H287.262C287.462 25.88 287.542 25.968 287.502 26.144L286.038 32C285.862 32.664 285.59 33.168 285.222 33.512C284.854 33.856 284.354 34.028 283.722 34.028ZM292.38 32H291.384C291.216 32 291.132 31.916 291.132 31.748V24.536C291.132 24.368 291.216 24.284 291.384 24.284H292.284C292.452 24.284 292.564 24.34 292.62 24.452L295.044 29H295.092V24.536C295.092 24.368 295.176 24.284 295.344 24.284H296.34C296.508 24.284 296.592 24.368 296.592 24.536V31.748C296.592 31.916 296.508 32 296.34 32H295.464C295.288 32 295.16 31.92 295.08 31.76L292.68 27.296H292.632V31.748C292.632 31.916 292.548 32 292.38 32ZM302.543 32H299.891C299.259 32 298.771 31.832 298.427 31.496C298.083 31.16 297.911 30.676 297.911 30.044V27.836C297.911 27.204 298.083 26.72 298.427 26.384C298.771 26.048 299.259 25.88 299.891 25.88H300.839C301.471 25.88 301.959 26.048 302.303 26.384C302.647 26.72 302.819 27.204 302.819 27.836V29.36C302.819 29.528 302.735 29.612 302.567 29.612H299.555C299.459 29.612 299.411 29.656 299.411 29.744V30.008C299.411 30.256 299.463 30.436 299.567 30.548C299.679 30.652 299.863 30.704 300.119 30.704H302.543C302.711 30.704 302.795 30.792 302.795 30.968V31.76C302.795 31.848 302.775 31.912 302.735 31.952C302.703 31.984 302.639 32 302.543 32ZM299.555 28.592H301.187C301.275 28.592 301.319 28.548 301.319 28.46V27.884C301.319 27.628 301.267 27.448 301.163 27.344C301.059 27.24 300.879 27.188 300.623 27.188H300.119C299.863 27.188 299.683 27.24 299.579 27.344C299.475 27.448 299.423 27.628 299.423 27.884V28.46C299.423 28.548 299.467 28.592 299.555 28.592ZM306.409 32H305.041C304.889 32 304.793 31.916 304.753 31.748L303.553 26.132C303.521 25.964 303.581 25.88 303.733 25.88H304.885C305.061 25.88 305.157 25.964 305.173 26.132L305.713 30.236H305.809L306.661 26.132C306.685 25.964 306.777 25.88 306.937 25.88H307.993C308.161 25.88 308.261 25.964 308.293 26.132L309.121 30.236H309.217L309.769 26.132C309.793 25.964 309.889 25.88 310.057 25.88H311.209C311.369 25.88 311.429 25.964 311.389 26.132L310.189 31.748C310.157 31.916 310.061 32 309.901 32H308.533C308.373 32 308.277 31.916 308.245 31.748L307.513 27.692H307.417L306.697 31.748C306.673 31.916 306.577 32 306.409 32Z" fill="white"></path>
</g>
<rect width="336" height="200" transform="translate(0 280)" fill="url(#paint1_linear_25_16671)"></rect>
<g filter="url(#filter2_d_25_16671)">
<path d="M39.744 376.424H44.48C44.928 376.424 45.152 376.648 45.152 377.096V396.328C45.152 396.776 44.928 397 44.48 397H41.856C41.408 397 41.184 396.776 41.184 396.328V381.16H41.056L37.792 391.88C37.664 392.307 37.3973 392.52 36.992 392.52H34.304C33.8987 392.52 33.632 392.307 33.504 391.88L30.176 381.128H30.048V396.328C30.048 396.584 30.0053 396.765 29.92 396.872C29.8347 396.957 29.6533 397 29.376 397H26.752C26.304 397 26.08 396.776 26.08 396.328V377.096C26.08 376.648 26.304 376.424 26.752 376.424H31.52C31.8187 376.424 32.0213 376.573 32.128 376.872L35.52 388.168H35.712L39.136 376.872C39.2 376.573 39.4027 376.424 39.744 376.424ZM61.0108 397H53.9388C52.2534 397 50.9521 396.552 50.0348 395.656C49.1174 394.76 48.6588 393.469 48.6588 391.784V385.896C48.6588 384.211 49.1174 382.92 50.0348 382.024C50.9521 381.128 52.2534 380.68 53.9388 380.68H56.4668C58.1521 380.68 59.4534 381.128 60.3708 382.024C61.2881 382.92 61.7468 384.211 61.7468 385.896V389.96C61.7468 390.408 61.5228 390.632 61.0748 390.632H53.0428C52.7868 390.632 52.6588 390.749 52.6588 390.984V391.688C52.6588 392.349 52.7974 392.829 53.0748 393.128C53.3734 393.405 53.8641 393.544 54.5468 393.544H61.0108C61.4588 393.544 61.6828 393.779 61.6828 394.248V396.36C61.6828 396.595 61.6294 396.765 61.5228 396.872C61.4374 396.957 61.2668 397 61.0108 397ZM53.0428 387.912H57.3948C57.6294 387.912 57.7468 387.795 57.7468 387.56V386.024C57.7468 385.341 57.6081 384.861 57.3308 384.584C57.0534 384.307 56.5734 384.168 55.8908 384.168H54.5468C53.8641 384.168 53.3841 384.307 53.1068 384.584C52.8294 384.861 52.6908 385.341 52.6908 386.024V387.56C52.6908 387.795 52.8081 387.912 53.0428 387.912ZM75.1913 394.152V396.36C75.1913 396.595 75.1379 396.765 75.0313 396.872C74.9459 396.957 74.7753 397 74.5193 397H69.7513C68.0659 397 66.7646 396.552 65.8473 395.656C64.9299 394.76 64.4713 393.469 64.4713 391.784V385.896C64.4713 384.211 64.9299 382.92 65.8473 382.024C66.7646 381.128 68.0659 380.68 69.7513 380.68H74.5193C74.9673 380.68 75.1913 380.904 75.1913 381.352V383.56C75.1913 383.795 75.1379 383.965 75.0313 384.072C74.9459 384.157 74.7753 384.2 74.5193 384.2H70.3913C69.7299 384.2 69.2499 384.349 68.9513 384.648C68.6739 384.925 68.5353 385.405 68.5353 386.088V391.592C68.5353 392.275 68.6739 392.765 68.9513 393.064C69.2499 393.341 69.7299 393.48 70.3913 393.48H74.5193C74.9673 393.48 75.1913 393.704 75.1913 394.152ZM81.3395 397H78.6195C78.1715 397 77.9475 396.776 77.9475 396.328V375.176C77.9475 374.728 78.1715 374.504 78.6195 374.504H81.3395C81.7875 374.504 82.0115 374.728 82.0115 375.176V382.408H82.1395C82.6088 381.256 83.6542 380.68 85.2755 380.68H86.2995C89.6488 380.68 91.3235 382.419 91.3235 385.896V396.328C91.3235 396.776 91.0888 397 90.6195 397H87.9315C87.4835 397 87.2595 396.776 87.2595 396.328V386.088C87.2595 385.405 87.1102 384.925 86.8115 384.648C86.5342 384.349 86.0542 384.2 85.3715 384.2H84.2195C82.7475 384.2 82.0115 385.011 82.0115 386.632V396.328C82.0115 396.776 81.7875 397 81.3395 397ZM100.426 397H99.6575C97.9722 397 96.6708 396.552 95.7535 395.656C94.8362 394.76 94.3775 393.469 94.3775 391.784V385.896C94.3775 384.211 94.8362 382.92 95.7535 382.024C96.6708 381.128 97.9722 380.68 99.6575 380.68H107.05C107.519 380.68 107.754 380.904 107.754 381.352V396.328C107.754 396.776 107.519 397 107.05 397H104.362C103.914 397 103.69 396.776 103.69 396.328V395.272H103.562C103.327 395.848 102.911 396.285 102.314 396.584C101.716 396.861 101.087 397 100.426 397ZM103.69 391.048V384.552C103.69 384.317 103.562 384.2 103.306 384.2H100.298C99.6148 384.2 99.1348 384.349 98.8575 384.648C98.5802 384.925 98.4415 385.405 98.4415 386.088V391.592C98.4415 392.275 98.5802 392.765 98.8575 393.064C99.1348 393.341 99.6148 393.48 100.298 393.48H101.482C102.954 393.48 103.69 392.669 103.69 391.048ZM122.835 377.096V396.328C122.835 396.776 122.611 397 122.163 397H119.443C118.995 397 118.771 396.776 118.771 396.328V377.096C118.771 376.648 118.995 376.424 119.443 376.424H122.163C122.611 376.424 122.835 376.648 122.835 377.096ZM130.215 397H127.495C127.047 397 126.823 396.776 126.823 396.328V381.352C126.823 380.904 127.047 380.68 127.495 380.68H130.215C130.663 380.68 130.887 380.904 130.887 381.352V382.408H131.015C131.484 381.256 132.529 380.68 134.151 380.68H135.175C138.524 380.68 140.199 382.419 140.199 385.896V396.328C140.199 396.776 139.964 397 139.495 397H136.807C136.359 397 136.135 396.776 136.135 396.328V386.088C136.135 385.405 135.985 384.925 135.687 384.648C135.409 384.349 134.929 384.2 134.247 384.2H133.095C131.623 384.2 130.887 385.011 130.887 386.632V396.328C130.887 396.776 130.663 397 130.215 397ZM149.557 397H148.245C146.602 397 145.354 396.552 144.501 395.656C143.669 394.76 143.253 393.469 143.253 391.784V385.896C143.253 384.211 143.669 382.92 144.501 382.024C145.354 381.128 146.602 380.68 148.245 380.68H149.557C150.218 380.68 150.847 380.829 151.445 381.128C152.042 381.405 152.458 381.832 152.693 382.408H152.821V375.176C152.821 374.728 153.045 374.504 153.493 374.504H156.213C156.661 374.504 156.885 374.728 156.885 375.176V396.328C156.885 396.776 156.661 397 156.213 397H153.493C153.045 397 152.821 396.776 152.821 396.328V395.272H152.693C152.458 395.848 152.042 396.285 151.445 396.584C150.847 396.861 150.218 397 149.557 397ZM152.821 391.048V386.632C152.821 385.011 152.085 384.2 150.613 384.2H149.173C148.49 384.2 148.01 384.349 147.733 384.648C147.455 384.925 147.317 385.405 147.317 386.088V391.592C147.317 392.275 147.455 392.765 147.733 393.064C148.01 393.341 148.49 393.48 149.173 393.48H150.613C152.085 393.48 152.821 392.669 152.821 391.048ZM166.304 397H165.248C163.606 397 162.358 396.552 161.504 395.656C160.672 394.76 160.256 393.469 160.256 391.784V381.352C160.256 380.904 160.48 380.68 160.928 380.68H163.648C164.096 380.68 164.32 380.904 164.32 381.352V391.592C164.32 392.275 164.459 392.765 164.736 393.064C165.035 393.341 165.515 393.48 166.176 393.48H167.36C168.832 393.48 169.568 392.669 169.568 391.048V381.352C169.568 380.904 169.792 380.68 170.24 380.68H172.928C173.398 380.68 173.632 380.904 173.632 381.352V396.328C173.632 396.776 173.398 397 172.928 397H170.24C169.792 397 169.568 396.776 169.568 396.328V395.272H169.44C169.206 395.848 168.79 396.285 168.192 396.584C167.595 396.861 166.966 397 166.304 397ZM183.342 397H177.262C176.836 397 176.622 396.776 176.622 396.328V394.28C176.622 394.045 176.665 393.885 176.75 393.8C176.836 393.693 177.006 393.64 177.262 393.64H182.606C183.652 393.64 184.174 393.32 184.174 392.68V392.52C184.174 392.008 183.737 391.517 182.862 391.048L179.694 389.288C178.606 388.733 177.806 388.136 177.294 387.496C176.782 386.856 176.526 386.035 176.526 385.032C176.526 383.539 176.921 382.44 177.71 381.736C178.5 381.032 179.737 380.68 181.422 380.68H186.766C187.193 380.68 187.406 380.904 187.406 381.352V383.432C187.406 383.667 187.364 383.837 187.278 383.944C187.193 384.029 187.022 384.072 186.766 384.072H182.318C181.273 384.072 180.75 384.339 180.75 384.872V385.032C180.75 385.501 181.209 385.981 182.126 386.472L185.358 388.392C186.468 388.989 187.246 389.608 187.694 390.248C188.142 390.867 188.366 391.688 188.366 392.712C188.366 395.571 186.692 397 183.342 397ZM191.549 384.2H190.27C190.014 384.2 189.832 384.157 189.726 384.072C189.64 383.987 189.598 383.816 189.598 383.56V381.352C189.598 380.904 189.822 380.68 190.27 380.68H191.549C191.784 380.68 191.902 380.563 191.902 380.328V377.288C191.902 376.84 192.136 376.616 192.606 376.616H195.294C195.742 376.616 195.966 376.84 195.966 377.288V380.328C195.966 380.563 196.094 380.68 196.35 380.68H198.845C199.294 380.68 199.518 380.904 199.518 381.352V383.56C199.518 383.795 199.464 383.965 199.358 384.072C199.272 384.157 199.102 384.2 198.845 384.2H196.35C196.094 384.2 195.966 384.317 195.966 384.552V391.624C195.966 392.285 196.115 392.765 196.414 393.064C196.712 393.341 197.203 393.48 197.885 393.48H199.166C199.614 393.48 199.838 393.704 199.838 394.152V396.36C199.838 396.595 199.784 396.765 199.678 396.872C199.592 396.957 199.422 397 199.166 397H197.214C195.528 397 194.216 396.552 193.278 395.656C192.36 394.76 191.902 393.48 191.902 391.816V384.552C191.902 384.317 191.784 384.2 191.549 384.2ZM205.871 397H203.151C202.703 397 202.479 396.776 202.479 396.328V381.352C202.479 380.904 202.703 380.68 203.151 380.68H205.871C206.319 380.68 206.543 380.904 206.543 381.352V382.44H206.671C206.905 381.864 207.321 381.427 207.919 381.128C208.516 380.829 209.145 380.68 209.807 380.68H210.959C211.385 380.68 211.599 380.904 211.599 381.352V383.56C211.599 383.816 211.545 383.997 211.439 384.104C211.353 384.189 211.193 384.221 210.959 384.2H208.751C207.279 384.2 206.543 385.032 206.543 386.696V396.328C206.543 396.776 206.319 397 205.871 397ZM213.795 377.928V375.144C213.795 374.717 214.008 374.504 214.435 374.504H217.219C217.646 374.504 217.859 374.707 217.859 375.112V377.928C217.859 378.355 217.646 378.568 217.219 378.568H214.435C214.008 378.568 213.795 378.355 213.795 377.928ZM213.795 396.328V381.352C213.795 380.904 214.008 380.68 214.435 380.68H217.187C217.635 380.68 217.859 380.904 217.859 381.352V396.328C217.859 396.605 217.806 396.787 217.699 396.872C217.614 396.957 217.454 397 217.219 397H214.467C214.019 397 213.795 396.776 213.795 396.328ZM233.573 397H226.501C224.816 397 223.515 396.552 222.597 395.656C221.68 394.76 221.221 393.469 221.221 391.784V385.896C221.221 384.211 221.68 382.92 222.597 382.024C223.515 381.128 224.816 380.68 226.501 380.68H229.029C230.715 380.68 232.016 381.128 232.933 382.024C233.851 382.92 234.309 384.211 234.309 385.896V389.96C234.309 390.408 234.085 390.632 233.637 390.632H225.605C225.349 390.632 225.221 390.749 225.221 390.984V391.688C225.221 392.349 225.36 392.829 225.637 393.128C225.936 393.405 226.427 393.544 227.109 393.544H233.573C234.021 393.544 234.245 393.779 234.245 394.248V396.36C234.245 396.595 234.192 396.765 234.085 396.872C234 396.957 233.829 397 233.573 397ZM225.605 387.912H229.957C230.192 387.912 230.309 387.795 230.309 387.56V386.024C230.309 385.341 230.171 384.861 229.893 384.584C229.616 384.307 229.136 384.168 228.453 384.168H227.109C226.427 384.168 225.947 384.307 225.669 384.584C225.392 384.861 225.253 385.341 225.253 386.024V387.56C225.253 387.795 225.371 387.912 225.605 387.912ZM243.53 397H237.45C237.023 397 236.81 396.776 236.81 396.328V394.28C236.81 394.045 236.852 393.885 236.938 393.8C237.023 393.693 237.194 393.64 237.45 393.64H242.794C243.839 393.64 244.362 393.32 244.362 392.68V392.52C244.362 392.008 243.924 391.517 243.05 391.048L239.882 389.288C238.794 388.733 237.994 388.136 237.482 387.496C236.97 386.856 236.714 386.035 236.714 385.032C236.714 383.539 237.108 382.44 237.898 381.736C238.687 381.032 239.924 380.68 241.61 380.68H246.954C247.38 380.68 247.594 380.904 247.594 381.352V383.432C247.594 383.667 247.551 383.837 247.466 383.944C247.38 384.029 247.21 384.072 246.954 384.072H242.506C241.46 384.072 240.938 384.339 240.938 384.872V385.032C240.938 385.501 241.396 385.981 242.314 386.472L245.546 388.392C246.655 388.989 247.434 389.608 247.882 390.248C248.33 390.867 248.554 391.688 248.554 392.712C248.554 395.571 246.879 397 243.53 397Z" fill="white"></path>
</g>
<path d="M25.38 456H24.93C24.8367 456 24.79 455.953 24.79 455.86V449.71C24.79 449.617 24.8367 449.57 24.93 449.57H27.23C27.69 449.57 28.0533 449.703 28.32 449.97C28.5867 450.23 28.72 450.59 28.72 451.05V451.96C28.72 452.333 28.63 452.643 28.45 452.89C28.27 453.13 28.02 453.29 27.7 453.37V453.41L28.86 455.84C28.92 455.947 28.8867 456 28.76 456H28.31C28.1967 456 28.1133 455.953 28.06 455.86L26.94 453.44H25.62C25.5533 453.44 25.52 453.47 25.52 453.53V455.86C25.52 455.953 25.4733 456 25.38 456ZM25.62 452.83H27.13C27.7033 452.83 27.99 452.543 27.99 451.97V451.08C27.99 450.5 27.7033 450.21 27.13 450.21H25.62C25.5533 450.21 25.52 450.24 25.52 450.3V452.74C25.52 452.8 25.5533 452.83 25.62 452.83ZM33.5611 456H31.4411C30.9811 456 30.6178 455.87 30.3511 455.61C30.0911 455.35 29.9611 454.987 29.9611 454.52V452.38C29.9611 451.913 30.0911 451.55 30.3511 451.29C30.6178 451.03 30.9811 450.9 31.4411 450.9H32.2811C32.7411 450.9 33.1011 451.03 33.3611 451.29C33.6211 451.55 33.7511 451.913 33.7511 452.38V453.65C33.7511 453.75 33.7044 453.8 33.6111 453.8H30.7811C30.7144 453.8 30.6811 453.83 30.6811 453.89V454.5C30.6811 455.08 30.9611 455.37 31.5211 455.37H33.5611C33.6544 455.37 33.7011 455.417 33.7011 455.51V455.87C33.7011 455.957 33.6544 456 33.5611 456ZM30.7811 453.27H32.9411C33.0078 453.27 33.0411 453.237 33.0411 453.17V452.4C33.0411 451.827 32.7611 451.54 32.2011 451.54H31.5211C30.9611 451.54 30.6811 451.827 30.6811 452.4V453.17C30.6811 453.237 30.7144 453.27 30.7811 453.27ZM36.713 456H34.933C34.8396 456 34.793 455.953 34.793 455.86V455.51C34.793 455.423 34.8396 455.38 34.933 455.38H36.613C37.133 455.38 37.393 455.187 37.393 454.8V454.61C37.393 454.257 37.223 454.013 36.883 453.88L35.703 453.38C35.363 453.24 35.1196 453.077 34.973 452.89C34.8263 452.697 34.753 452.443 34.753 452.13C34.753 451.31 35.203 450.9 36.103 450.9H37.743C37.8363 450.9 37.883 450.947 37.883 451.04V451.39C37.883 451.477 37.8363 451.52 37.743 451.52H36.233C35.993 451.52 35.8096 451.57 35.683 451.67C35.563 451.77 35.503 451.887 35.503 452.02V452.19C35.503 452.47 35.693 452.683 36.073 452.83L37.253 453.36C37.5996 453.493 37.833 453.67 37.953 453.89C38.0796 454.11 38.143 454.413 38.143 454.8C38.143 455.6 37.6663 456 36.713 456ZM39.4991 451.54H38.9491C38.8558 451.54 38.8091 451.497 38.8091 451.41V451.04C38.8091 450.947 38.8558 450.9 38.9491 450.9H39.4991C39.5658 450.9 39.5991 450.87 39.5991 450.81V449.95C39.5991 449.857 39.6458 449.81 39.7391 449.81H40.1891C40.2758 449.81 40.3191 449.857 40.3191 449.95V450.81C40.3191 450.87 40.3558 450.9 40.4291 450.9H41.4891C41.5891 450.9 41.6391 450.947 41.6391 451.04V451.41C41.6391 451.497 41.5891 451.54 41.4891 451.54H40.4291C40.3558 451.54 40.3191 451.57 40.3191 451.63V454.51C40.3191 455.077 40.6125 455.36 41.1991 455.36H41.5891C41.6891 455.36 41.7391 455.407 41.7391 455.5V455.87C41.7391 455.957 41.6891 456 41.5891 456H41.1091C40.6491 456 40.2825 455.873 40.0091 455.62C39.7358 455.36 39.5991 455 39.5991 454.54V451.63C39.5991 451.57 39.5658 451.54 39.4991 451.54ZM43.3855 456H42.9355C42.8421 456 42.7955 455.953 42.7955 455.86V451.04C42.7955 450.947 42.8421 450.9 42.9355 450.9H43.3855C43.4788 450.9 43.5255 450.947 43.5255 451.04V451.44H43.5655C43.6321 451.293 43.7588 451.167 43.9455 451.06C44.1321 450.953 44.3521 450.9 44.6055 450.9H44.9955C45.0821 450.9 45.1255 450.947 45.1255 451.04V451.41C45.1255 451.457 45.1155 451.493 45.0955 451.52C45.0755 451.54 45.0421 451.547 44.9955 451.54H44.4555C44.1555 451.54 43.9255 451.63 43.7655 451.81C43.6055 451.99 43.5255 452.237 43.5255 452.55V455.86C43.5255 455.953 43.4788 456 43.3855 456ZM46.0779 450.06V449.12C46.0779 449.027 46.1212 448.98 46.2079 448.98H46.6679C46.7612 448.98 46.8079 449.027 46.8079 449.12V450.06C46.8079 450.153 46.7612 450.2 46.6679 450.2H46.2079C46.1212 450.2 46.0779 450.153 46.0779 450.06ZM46.0779 455.86V451.04C46.0779 450.947 46.1212 450.9 46.2079 450.9H46.6679C46.7612 450.9 46.8079 450.947 46.8079 451.04V455.86C46.8079 455.953 46.7612 456 46.6679 456H46.2179C46.1246 456 46.0779 455.953 46.0779 455.86ZM51.2049 455.5V455.87C51.2049 455.957 51.1583 456 51.0649 456H49.6149C49.1549 456 48.7916 455.87 48.5249 455.61C48.2649 455.35 48.1349 454.987 48.1349 454.52V452.38C48.1349 451.913 48.2649 451.55 48.5249 451.29C48.7916 451.03 49.1549 450.9 49.6149 450.9H51.0649C51.1583 450.9 51.2049 450.947 51.2049 451.04V451.41C51.2049 451.497 51.1583 451.54 51.0649 451.54H49.6949C49.1416 451.54 48.8649 451.83 48.8649 452.41V454.49C48.8649 455.07 49.1416 455.36 49.6949 455.36H51.0649C51.1583 455.36 51.2049 455.407 51.2049 455.5ZM52.4191 451.54H51.8691C51.7757 451.54 51.7291 451.497 51.7291 451.41V451.04C51.7291 450.947 51.7757 450.9 51.8691 450.9H52.4191C52.4857 450.9 52.5191 450.87 52.5191 450.81V449.95C52.5191 449.857 52.5657 449.81 52.6591 449.81H53.1091C53.1957 449.81 53.2391 449.857 53.2391 449.95V450.81C53.2391 450.87 53.2757 450.9 53.3491 450.9H54.4091C54.5091 450.9 54.5591 450.947 54.5591 451.04V451.41C54.5591 451.497 54.5091 451.54 54.4091 451.54H53.3491C53.2757 451.54 53.2391 451.57 53.2391 451.63V454.51C53.2391 455.077 53.5324 455.36 54.1191 455.36H54.5091C54.6091 455.36 54.6591 455.407 54.6591 455.5V455.87C54.6591 455.957 54.6091 456 54.5091 456H54.0291C53.5691 456 53.2024 455.873 52.9291 455.62C52.6557 455.36 52.5191 455 52.5191 454.54V451.63C52.5191 451.57 52.4857 451.54 52.4191 451.54ZM59.2154 456H57.0954C56.6354 456 56.2721 455.87 56.0054 455.61C55.7454 455.35 55.6154 454.987 55.6154 454.52V452.38C55.6154 451.913 55.7454 451.55 56.0054 451.29C56.2721 451.03 56.6354 450.9 57.0954 450.9H57.9354C58.3954 450.9 58.7554 451.03 59.0154 451.29C59.2754 451.55 59.4054 451.913 59.4054 452.38V453.65C59.4054 453.75 59.3587 453.8 59.2654 453.8H56.4354C56.3687 453.8 56.3354 453.83 56.3354 453.89V454.5C56.3354 455.08 56.6154 455.37 57.1754 455.37H59.2154C59.3087 455.37 59.3554 455.417 59.3554 455.51V455.87C59.3554 455.957 59.3087 456 59.2154 456ZM56.4354 453.27H58.5954C58.6621 453.27 58.6954 453.237 58.6954 453.17V452.4C58.6954 451.827 58.4154 451.54 57.8554 451.54H57.1754C56.6154 451.54 56.3354 451.827 56.3354 452.4V453.17C56.3354 453.237 56.3687 453.27 56.4354 453.27ZM62.5673 456H61.9773C61.5239 456 61.1706 455.87 60.9173 455.61C60.6639 455.35 60.5373 454.987 60.5373 454.52V452.38C60.5373 451.913 60.6639 451.55 60.9173 451.29C61.1706 451.03 61.5239 450.9 61.9773 450.9H62.5673C63.0873 450.9 63.4306 451.077 63.5973 451.43H63.6373V449.11C63.6373 449.017 63.6806 448.97 63.7673 448.97H64.2273C64.3139 448.97 64.3573 449.017 64.3573 449.11V455.86C64.3573 455.953 64.3139 456 64.2273 456H63.7673C63.6806 456 63.6373 455.953 63.6373 455.86V455.47H63.5973C63.4306 455.823 63.0873 456 62.5673 456ZM63.6373 454.44V452.46C63.6373 452.167 63.5573 451.94 63.3973 451.78C63.2373 451.62 63.0073 451.54 62.7073 451.54H62.0973C61.5439 451.54 61.2673 451.83 61.2673 452.41V454.49C61.2673 455.07 61.5439 455.36 62.0973 455.36H62.7073C63.0073 455.36 63.2373 455.28 63.3973 455.12C63.5573 454.96 63.6373 454.733 63.6373 454.44ZM70.954 456H69.754C69.294 456 68.9307 455.87 68.664 455.61C68.404 455.35 68.274 454.987 68.274 454.52V451.05C68.274 450.583 68.404 450.22 68.664 449.96C68.9307 449.7 69.294 449.57 69.754 449.57H70.954C71.414 449.57 71.774 449.7 72.034 449.96C72.3007 450.22 72.434 450.583 72.434 451.05V451.54C72.434 451.633 72.3873 451.68 72.294 451.68H71.844C71.7507 451.68 71.704 451.633 71.704 451.54V451.08C71.704 450.5 71.424 450.21 70.864 450.21H69.834C69.2807 450.21 69.004 450.5 69.004 451.08V454.49C69.004 455.07 69.2807 455.36 69.834 455.36H70.864C71.424 455.36 71.704 455.07 71.704 454.49V454.03C71.704 453.937 71.7507 453.89 71.844 453.89H72.294C72.3873 453.89 72.434 453.937 72.434 454.03V454.52C72.434 454.987 72.3007 455.35 72.034 455.61C71.774 455.87 71.414 456 70.954 456ZM74.3241 456H73.8741C73.7808 456 73.7341 455.953 73.7341 455.86V449.11C73.7341 449.017 73.7808 448.97 73.8741 448.97H74.3241C74.4175 448.97 74.4641 449.017 74.4641 449.11V455.86C74.4641 455.953 74.4175 456 74.3241 456ZM77.7912 456H77.2712C76.8112 456 76.4478 455.87 76.1812 455.61C75.9212 455.35 75.7912 454.987 75.7912 454.52V452.38C75.7912 451.913 75.9212 451.55 76.1812 451.29C76.4478 451.03 76.8112 450.9 77.2712 450.9H79.4412C79.5345 450.9 79.5812 450.947 79.5812 451.04V455.86C79.5812 455.953 79.5345 456 79.4412 456H78.9912C78.8978 456 78.8512 455.953 78.8512 455.86V455.47H78.8112C78.6445 455.823 78.3045 456 77.7912 456ZM78.8512 454.44V451.63C78.8512 451.57 78.8178 451.54 78.7512 451.54H77.3512C76.7978 451.54 76.5212 451.83 76.5212 452.41V454.49C76.5212 455.07 76.7978 455.36 77.3512 455.36H77.9212C78.2212 455.36 78.4512 455.28 78.6112 455.12C78.7712 454.96 78.8512 454.733 78.8512 454.44ZM81.0095 450.06V449.12C81.0095 449.027 81.0529 448.98 81.1395 448.98H81.5995C81.6929 448.98 81.7395 449.027 81.7395 449.12V450.06C81.7395 450.153 81.6929 450.2 81.5995 450.2H81.1395C81.0529 450.2 81.0095 450.153 81.0095 450.06ZM81.0095 455.86V451.04C81.0095 450.947 81.0529 450.9 81.1395 450.9H81.5995C81.6929 450.9 81.7395 450.947 81.7395 451.04V455.86C81.7395 455.953 81.6929 456 81.5995 456H81.1495C81.0562 456 81.0095 455.953 81.0095 455.86ZM83.7566 456H83.3066C83.2132 456 83.1666 455.953 83.1666 455.86V451.04C83.1666 450.947 83.2132 450.9 83.3066 450.9H83.7566C83.8499 450.9 83.8966 450.947 83.8966 451.04V451.43H83.9366C84.1232 451.077 84.4766 450.9 84.9966 450.9H85.3666C85.9532 450.9 86.3599 451.127 86.5866 451.58C86.6932 451.36 86.8599 451.193 87.0866 451.08C87.3199 450.96 87.5632 450.9 87.8166 450.9H88.1666C88.6199 450.9 88.9732 451.03 89.2266 451.29C89.4799 451.55 89.6066 451.913 89.6066 452.38V455.86C89.6066 455.953 89.5599 456 89.4666 456H89.0166C88.9232 456 88.8766 455.953 88.8766 455.86V452.41C88.8766 451.83 88.5966 451.54 88.0366 451.54H87.7066C87.4066 451.54 87.1732 451.627 87.0066 451.8C86.8466 451.967 86.7666 452.197 86.7666 452.49V455.86C86.7666 455.953 86.7199 456 86.6266 456H86.1766C86.0832 456 86.0366 455.953 86.0366 455.86V452.41C86.0366 451.83 85.7566 451.54 85.1966 451.54H84.8266C84.5266 451.54 84.2966 451.62 84.1366 451.78C83.9766 451.94 83.8966 452.167 83.8966 452.46V455.86C83.8966 455.953 83.8499 456 83.7566 456Z" fill="white" fill-opacity="0.6"></path>
<path d="M29.344 421H27.488C26.6987 421 26.0853 420.781 25.648 420.344C25.2213 419.907 25.008 419.299 25.008 418.52V413.192C25.008 412.403 25.2213 411.795 25.648 411.368C26.0853 410.931 26.6987 410.712 27.488 410.712H29.344C30.1227 410.712 30.7307 410.931 31.168 411.368C31.6053 411.795 31.824 412.403 31.824 413.192V413.96C31.824 414.152 31.728 414.248 31.536 414.248H30.528C30.3467 414.248 30.256 414.152 30.256 413.96V413.256C30.256 412.467 29.872 412.072 29.104 412.072H27.712C26.944 412.072 26.56 412.467 26.56 413.256V418.456C26.56 419.245 26.944 419.64 27.712 419.64H29.104C29.872 419.64 30.256 419.245 30.256 418.456V417.752C30.256 417.56 30.3467 417.464 30.528 417.464H31.536C31.728 417.464 31.824 417.56 31.824 417.752V418.52C31.824 419.299 31.6053 419.907 31.168 420.344C30.7307 420.781 30.1227 421 29.344 421ZM39.2646 421H34.0806C33.8993 421 33.8086 420.909 33.8086 420.728V410.984C33.8086 410.803 33.8993 410.712 34.0806 410.712H35.0886C35.27 410.712 35.3606 410.803 35.3606 410.984V419.448C35.3606 419.555 35.4246 419.608 35.5526 419.608H39.2646C39.446 419.608 39.5366 419.704 39.5366 419.896V420.728C39.5366 420.909 39.446 421 39.2646 421ZM41.5718 421H40.4198C40.2704 421 40.2171 420.909 40.2598 420.728L43.0438 410.984C43.0971 410.803 43.2251 410.712 43.4278 410.712H45.0278C45.2411 410.712 45.3691 410.803 45.4118 410.984L48.1958 420.728C48.2384 420.909 48.1798 421 48.0198 421H46.8838C46.7878 421 46.7184 420.984 46.6758 420.952C46.6438 420.909 46.6171 420.835 46.5958 420.728L45.9878 418.648H42.4678L41.8598 420.728C41.8171 420.909 41.7211 421 41.5718 421ZM44.1958 412.248L42.7878 417.368H45.6838L44.2598 412.248H44.1958ZM49.5854 418.504V418.088C49.5854 417.907 49.676 417.816 49.8574 417.816H50.8814C51.0627 417.816 51.1534 417.907 51.1534 418.088V418.376C51.1534 418.824 51.2494 419.149 51.4414 419.352C51.644 419.544 51.9747 419.64 52.4334 419.64H53.5374C53.996 419.64 54.3267 419.539 54.5294 419.336C54.732 419.123 54.8334 418.781 54.8334 418.312V417.944C54.8334 417.603 54.7 417.336 54.4334 417.144C54.1774 416.941 53.8574 416.813 53.4734 416.76C53.0894 416.696 52.668 416.611 52.2094 416.504C51.7507 416.397 51.3294 416.275 50.9454 416.136C50.5614 415.997 50.236 415.736 49.9694 415.352C49.7134 414.968 49.5854 414.477 49.5854 413.88V413.208C49.5854 412.429 49.804 411.821 50.2414 411.384C50.6894 410.936 51.3027 410.712 52.0814 410.712H53.7774C54.5667 410.712 55.18 410.936 55.6174 411.384C56.0654 411.821 56.2894 412.429 56.2894 413.208V413.56C56.2894 413.741 56.1987 413.832 56.0174 413.832H54.9934C54.812 413.832 54.7214 413.741 54.7214 413.56V413.352C54.7214 412.893 54.62 412.568 54.4174 412.376C54.2254 412.173 53.9 412.072 53.4414 412.072H52.4334C51.9747 412.072 51.644 412.179 51.4414 412.392C51.2494 412.595 51.1534 412.947 51.1534 413.448V413.944C51.1534 414.424 51.5 414.749 52.1934 414.92C52.5027 414.995 52.8387 415.059 53.2014 415.112C53.5747 415.165 53.948 415.245 54.3214 415.352C54.6947 415.459 55.036 415.603 55.3454 415.784C55.6547 415.955 55.9054 416.221 56.0974 416.584C56.2894 416.936 56.3854 417.368 56.3854 417.88V418.504C56.3854 419.283 56.1614 419.896 55.7134 420.344C55.276 420.781 54.668 421 53.8894 421H52.0974C51.3187 421 50.7054 420.781 50.2574 420.344C49.8094 419.896 49.5854 419.283 49.5854 418.504ZM58.351 418.504V418.088C58.351 417.907 58.4417 417.816 58.623 417.816H59.647C59.8283 417.816 59.919 417.907 59.919 418.088V418.376C59.919 418.824 60.015 419.149 60.207 419.352C60.4097 419.544 60.7403 419.64 61.199 419.64H62.303C62.7617 419.64 63.0923 419.539 63.295 419.336C63.4977 419.123 63.599 418.781 63.599 418.312V417.944C63.599 417.603 63.4657 417.336 63.199 417.144C62.943 416.941 62.623 416.813 62.239 416.76C61.855 416.696 61.4337 416.611 60.975 416.504C60.5163 416.397 60.095 416.275 59.711 416.136C59.327 415.997 59.0017 415.736 58.735 415.352C58.479 414.968 58.351 414.477 58.351 413.88V413.208C58.351 412.429 58.5697 411.821 59.007 411.384C59.455 410.936 60.0683 410.712 60.847 410.712H62.543C63.3323 410.712 63.9457 410.936 64.383 411.384C64.831 411.821 65.055 412.429 65.055 413.208V413.56C65.055 413.741 64.9643 413.832 64.783 413.832H63.759C63.5777 413.832 63.487 413.741 63.487 413.56V413.352C63.487 412.893 63.3857 412.568 63.183 412.376C62.991 412.173 62.6657 412.072 62.207 412.072H61.199C60.7403 412.072 60.4097 412.179 60.207 412.392C60.015 412.595 59.919 412.947 59.919 413.448V413.944C59.919 414.424 60.2657 414.749 60.959 414.92C61.2683 414.995 61.6043 415.059 61.967 415.112C62.3403 415.165 62.7137 415.245 63.087 415.352C63.4603 415.459 63.8017 415.603 64.111 415.784C64.4203 415.955 64.671 416.221 64.863 416.584C65.055 416.936 65.151 417.368 65.151 417.88V418.504C65.151 419.283 64.927 419.896 64.479 420.344C64.0417 420.781 63.4337 421 62.655 421H60.863C60.0843 421 59.471 420.781 59.023 420.344C58.575 419.896 58.351 419.283 58.351 418.504ZM68.9406 410.984V420.728C68.9406 420.909 68.85 421 68.6686 421H67.6606C67.4793 421 67.3886 420.909 67.3886 420.728V410.984C67.3886 410.803 67.4793 410.712 67.6606 410.712H68.6686C68.85 410.712 68.9406 410.803 68.9406 410.984ZM72.6355 421H71.6275C71.4462 421 71.3555 420.909 71.3555 420.728V410.984C71.3555 410.803 71.4462 410.712 71.6275 410.712H76.6515C76.8328 410.712 76.9235 410.803 76.9235 410.984V411.8C76.9235 411.981 76.8328 412.072 76.6515 412.072H73.0995C72.9715 412.072 72.9075 412.125 72.9075 412.232V415.256C72.9075 415.373 72.9715 415.432 73.0995 415.432H76.1875C76.3795 415.432 76.4755 415.523 76.4755 415.704V416.504C76.4755 416.696 76.3795 416.792 76.1875 416.792H73.0995C72.9715 416.792 72.9075 416.845 72.9075 416.952V420.728C72.9075 420.909 72.8168 421 72.6355 421ZM80.2531 410.984V420.728C80.2531 420.909 80.1625 421 79.9811 421H78.9731C78.7918 421 78.7011 420.909 78.7011 420.728V410.984C78.7011 410.803 78.7918 410.712 78.9731 410.712H79.9811C80.1625 410.712 80.2531 410.803 80.2531 410.984ZM88.06 421H82.94C82.7587 421 82.668 420.909 82.668 420.728V410.984C82.668 410.803 82.7587 410.712 82.94 410.712H88.06C88.2307 410.712 88.316 410.803 88.316 410.984V411.8C88.316 411.981 88.2307 412.072 88.06 412.072H84.412C84.284 412.072 84.22 412.125 84.22 412.232V414.936C84.22 415.043 84.284 415.096 84.412 415.096H87.5C87.692 415.096 87.788 415.187 87.788 415.368V416.184C87.788 416.365 87.692 416.456 87.5 416.456H84.412C84.284 416.456 84.22 416.509 84.22 416.616V419.464C84.22 419.581 84.284 419.64 84.412 419.64H88.06C88.2307 419.64 88.316 419.731 88.316 419.912V420.728C88.316 420.909 88.2307 421 88.06 421ZM92.0835 419.64H94.3395C95.1075 419.64 95.4915 419.245 95.4915 418.456V413.256C95.4915 412.467 95.1075 412.072 94.3395 412.072H92.0835C91.9662 412.072 91.9075 412.125 91.9075 412.232V419.464C91.9075 419.581 91.9662 419.64 92.0835 419.64ZM90.3555 420.728V410.984C90.3555 410.803 90.4462 410.712 90.6275 410.712H94.5635C95.3422 410.712 95.9502 410.931 96.3875 411.368C96.8355 411.795 97.0595 412.403 97.0595 413.192V418.52C97.0595 419.299 96.8355 419.907 96.3875 420.344C95.9502 420.781 95.3422 421 94.5635 421H90.6275C90.4462 421 90.3555 420.909 90.3555 420.728ZM104.323 421H103.315C103.134 421 103.043 420.909 103.043 420.728V410.984C103.043 410.803 103.134 410.712 103.315 410.712H107.123C107.902 410.712 108.51 410.931 108.947 411.368C109.384 411.795 109.603 412.403 109.603 413.192V414.856C109.603 415.635 109.384 416.243 108.947 416.68C108.51 417.117 107.902 417.336 107.123 417.336H104.787C104.659 417.336 104.595 417.389 104.595 417.496V420.728C104.595 420.909 104.504 421 104.323 421ZM104.771 415.96H106.899C107.656 415.96 108.035 415.565 108.035 414.776V413.256C108.035 412.467 107.656 412.072 106.899 412.072H104.771C104.654 412.072 104.595 412.125 104.595 412.232V415.8C104.595 415.907 104.654 415.96 104.771 415.96ZM113.128 410.984V420.728C113.128 420.909 113.037 421 112.856 421H111.848C111.667 421 111.576 420.909 111.576 420.728V410.984C111.576 410.803 111.667 410.712 111.848 410.712H112.856C113.037 410.712 113.128 410.803 113.128 410.984ZM115.351 418.504V418.088C115.351 417.907 115.442 417.816 115.623 417.816H116.647C116.828 417.816 116.919 417.907 116.919 418.088V418.376C116.919 418.824 117.015 419.149 117.207 419.352C117.41 419.544 117.74 419.64 118.199 419.64H119.303C119.762 419.64 120.092 419.539 120.295 419.336C120.498 419.123 120.599 418.781 120.599 418.312V417.944C120.599 417.603 120.466 417.336 120.199 417.144C119.943 416.941 119.623 416.813 119.239 416.76C118.855 416.696 118.434 416.611 117.975 416.504C117.516 416.397 117.095 416.275 116.711 416.136C116.327 415.997 116.002 415.736 115.735 415.352C115.479 414.968 115.351 414.477 115.351 413.88V413.208C115.351 412.429 115.57 411.821 116.007 411.384C116.455 410.936 117.068 410.712 117.847 410.712H119.543C120.332 410.712 120.946 410.936 121.383 411.384C121.831 411.821 122.055 412.429 122.055 413.208V413.56C122.055 413.741 121.964 413.832 121.783 413.832H120.759C120.578 413.832 120.487 413.741 120.487 413.56V413.352C120.487 412.893 120.386 412.568 120.183 412.376C119.991 412.173 119.666 412.072 119.207 412.072H118.199C117.74 412.072 117.41 412.179 117.207 412.392C117.015 412.595 116.919 412.947 116.919 413.448V413.944C116.919 414.424 117.266 414.749 117.959 414.92C118.268 414.995 118.604 415.059 118.967 415.112C119.34 415.165 119.714 415.245 120.087 415.352C120.46 415.459 120.802 415.603 121.111 415.784C121.42 415.955 121.671 416.221 121.863 416.584C122.055 416.936 122.151 417.368 122.151 417.88V418.504C122.151 419.283 121.927 419.896 121.479 420.344C121.042 420.781 120.434 421 119.655 421H117.863C117.084 421 116.471 420.781 116.023 420.344C115.575 419.896 115.351 419.283 115.351 418.504ZM127.125 421H126.117C125.925 421 125.829 420.909 125.829 420.728V412.232C125.829 412.125 125.775 412.072 125.669 412.072H123.653C123.461 412.072 123.365 411.981 123.365 411.8V410.984C123.365 410.803 123.461 410.712 123.653 410.712H129.589C129.781 410.712 129.877 410.803 129.877 410.984V411.8C129.877 411.981 129.781 412.072 129.589 412.072H127.573C127.455 412.072 127.397 412.125 127.397 412.232V420.728C127.397 420.909 127.306 421 127.125 421ZM133.79 419.64H135.182C135.961 419.64 136.35 419.245 136.35 418.456V413.256C136.35 412.467 135.961 412.072 135.182 412.072H133.79C133.022 412.072 132.638 412.467 132.638 413.256V418.456C132.638 419.245 133.022 419.64 133.79 419.64ZM135.422 421H133.566C132.777 421 132.163 420.781 131.726 420.344C131.299 419.907 131.086 419.299 131.086 418.52V413.192C131.086 412.403 131.299 411.795 131.726 411.368C132.163 410.931 132.777 410.712 133.566 410.712H135.422C136.211 410.712 136.825 410.931 137.262 411.368C137.699 411.795 137.918 412.403 137.918 413.192V418.52C137.918 419.299 137.699 419.907 137.262 420.344C136.825 420.781 136.211 421 135.422 421ZM145.53 421H140.346C140.165 421 140.074 420.909 140.074 420.728V410.984C140.074 410.803 140.165 410.712 140.346 410.712H141.354C141.536 410.712 141.626 410.803 141.626 410.984V419.448C141.626 419.555 141.69 419.608 141.818 419.608H145.53C145.712 419.608 145.802 419.704 145.802 419.896V420.728C145.802 420.909 145.712 421 145.53 421Z" fill="#C92ADB"></path>
<g clip-path="url(#clip1_25_16671)">
<g filter="url(#filter3_f_25_16671)">
<path fill-rule="evenodd" clip-rule="evenodd" d="M83.2422 108.149C86.3074 108.136 90.1168 113.426 91.7002 114.533C91.7686 115.381 91.8057 115.676 91.6709 116.513C91.903 116.749 100.51 118.772 102.65 120.105C104.763 120.272 109.026 120.841 110.953 121.613L112.757 121.861C113.657 121.98 114.558 122.11 115.46 122.248C120.405 123.006 125.362 124.021 130.311 124.897C132.261 125.243 134.209 125.566 136.155 125.844C137.967 126.102 139.848 126.462 141.569 127.071C141.755 127.072 141.947 127.077 142.144 127.085C142.52 127.1 142.914 127.128 143.32 127.165C143.549 127.186 143.782 127.21 144.019 127.237C145.766 127.438 147.682 127.795 149.418 128.163C150.286 128.347 151.108 128.535 151.841 128.707C153.091 128.851 154.243 128.997 155.372 129.172C157.01 129.426 158.6 129.746 160.37 130.21L160.664 130.285C161.629 130.381 162.519 130.488 163.361 130.604C165.975 130.961 168.123 131.397 170.579 131.849C171.466 132.012 172.392 132.176 173.396 132.34C173.492 132.356 173.589 132.373 173.688 132.389C175.651 132.056 177.419 131.911 179.183 131.97C180.735 132.022 182.284 132.232 183.963 132.613L184.689 132.787L185.578 132.971C185.985 133.052 186.491 133.152 187.062 133.263C187.74 133.394 188.511 133.54 189.315 133.69C190.541 133.92 191.848 134.16 193.032 134.367C194.668 134.653 196.073 134.877 196.714 134.933C196.842 134.944 196.939 134.948 197.002 134.944C198.643 133.878 200.428 133.742 202.241 133.924C202.256 133.925 202.271 133.926 202.285 133.928C202.468 133.947 202.652 133.969 202.835 133.993C203.235 134.047 203.635 134.113 204.035 134.185C204.144 134.204 204.252 134.223 204.36 134.243C204.402 134.251 204.444 134.259 204.485 134.267L205.582 134.477C206.526 134.681 207.466 134.861 208.403 135.033C209.503 135.235 210.599 135.424 211.693 135.617C213.467 135.93 215.234 136.256 217.003 136.678L217.761 136.864C218.027 136.907 218.365 136.959 218.738 137.019C219.67 137.167 220.816 137.365 221.572 137.604C221.724 137.651 221.859 137.701 221.975 137.752C222.685 137.843 223.416 137.928 224.155 138.018C224.894 138.107 225.641 138.201 226.384 138.311C227.497 138.474 228.601 138.672 229.65 138.939C229.826 138.983 229.999 139.03 230.171 139.078C230.342 139.126 230.513 139.176 230.681 139.229C231.066 139.135 232.363 138.488 232.759 138.299C234.713 137.364 235.873 137.115 237.636 137.118C238.043 137.119 238.482 137.133 238.971 137.155C239.375 137.315 239.523 137.363 239.623 137.491C239.648 137.523 239.67 137.561 239.692 137.606C239.759 137.742 239.827 137.952 239.985 138.314L240.166 138.735C240.368 138.636 240.485 138.56 240.601 138.366C241.927 136.156 244.731 136.746 246.743 137.673L246.744 137.674L246.849 137.853C247.017 138.153 247.154 138.469 247.264 138.796C247.308 138.927 247.347 139.059 247.383 139.193C247.704 140.401 247.7 141.734 247.572 143.006C247.53 143.429 247.474 143.846 247.411 144.249C247.94 144.284 249.009 144.323 249.897 144.438C250.429 144.506 250.897 144.602 251.144 144.739C251.426 144.985 251.649 145.182 251.832 145.361C251.924 145.451 252.005 145.536 252.079 145.62C252.153 145.704 252.22 145.787 252.281 145.874C252.374 146.004 252.455 146.142 252.533 146.299C252.612 146.456 252.688 146.634 252.771 146.845C252.825 146.985 252.883 147.14 252.945 147.314C253.337 148.096 253.723 148.871 254.114 149.637C254.431 150.257 254.753 150.87 255.082 151.479C255.566 152.374 256.068 153.259 256.608 154.129C257.062 154.86 257.542 155.581 258.059 156.293C258.091 156.338 258.115 156.389 258.13 156.444C258.16 156.555 258.156 156.685 258.126 156.827C258.096 156.97 258.039 157.126 257.964 157.289C257.551 158.184 256.568 159.29 256.255 159.614C256.284 159.933 256.316 160.264 256.351 160.605C256.683 163.844 257.261 167.992 257.629 171.717C257.725 172.689 257.808 173.633 257.866 174.523C257.913 175.241 257.946 175.924 257.96 176.561C257.967 176.879 257.967 177.185 257.964 177.479L257.966 177.48C258.118 177.819 258.306 178.318 258.544 178.584C259.877 179.714 261.877 180.129 263.434 181.004C264.482 181.653 266.965 183.193 266.176 184.672C265.397 185.128 264.282 185.221 263.113 185.138C262.568 185.099 262.012 185.021 261.472 184.923C261.203 184.874 260.939 184.821 260.682 184.765C260.613 184.749 260.544 184.733 260.477 184.718C260.212 184.657 259.956 184.595 259.714 184.532C259.415 184.455 259.137 184.378 258.887 184.307C256.151 183.522 254.318 183.172 251.469 183.024C250.887 183.21 250.267 183.397 249.691 183.596C248.799 184.694 247.457 186.157 246.755 187.362C244.954 190.453 243.178 196.733 242.927 200.222C243.083 204.264 243.659 208.142 243.958 212.153C244.336 217.226 244.471 222.279 245.105 227.341C245.603 231.315 246.549 235.03 247.502 238.901C248.259 242.415 247.913 252.157 247.406 255.755C247.364 256.235 247.268 257.097 247.276 257.543C247.11 258.05 246.968 258.574 246.704 259.032C246.333 259.635 246.065 260.247 245.422 260.485C244.498 261.901 244.327 262.169 242.572 262.236C241.518 262.277 240.463 262.289 239.408 262.286C236.244 262.278 233.08 262.123 229.919 262.103C227.271 262.086 224.592 262.313 221.929 262.315C221.724 262.316 221.518 262.315 221.314 262.313C220.904 262.307 220.495 262.295 220.087 262.275C216.276 261.929 212.421 261.578 208.639 260.998C207.403 260.809 206.325 260.659 205.601 259.599C205.26 259.238 204.921 258.812 204.602 258.428C203.742 256.155 206.879 249.66 206.914 247.182C207.095 234.462 205.569 221.695 204.856 209.001C204.823 208.4 204.116 207.465 203.761 206.985C203.039 206.054 202.855 205.771 201.887 205.127C201.984 205.072 203.179 204.864 204.434 204.655C203.806 204.76 203.193 204.864 202.726 204.949C202.492 204.992 202.294 205.029 202.148 205.06C202.003 205.09 201.911 205.113 201.887 205.127C197.221 205.039 191.453 204.201 186.667 203.892C184.25 203.735 178.67 203.645 176.27 203.28L175.834 203.204C174.615 203.101 173.296 202.597 172.146 202.183C172.621 200.446 173.161 198.843 173.732 197.141C174.569 194.243 175.071 190.922 174.373 187.909C174.244 187.352 174.074 186.804 173.856 186.272C173.826 186.199 173.795 186.126 173.762 186.054C173.696 185.909 173.625 185.768 173.549 185.629C173.435 185.421 173.311 185.219 173.179 185.022C173.091 184.89 173 184.761 172.906 184.633C172.719 184.377 172.522 184.127 172.322 183.879C172.122 183.631 171.919 183.385 171.72 183.137C171.538 182.04 171.399 180.678 171.264 179.286C171.162 178.242 171.063 177.181 170.95 176.202C170.913 175.876 170.873 175.558 170.832 175.253C160.66 174.269 151.006 172.912 140.956 171.757L120.204 169.526C119.361 169.428 118.531 169.273 117.683 169.117C117.047 169 116.401 168.882 115.732 168.785C115.51 168.753 115.285 168.722 115.057 168.695C114.697 168.653 114.335 168.613 113.972 168.574C112.157 168.382 110.31 168.233 108.459 168.073C105.497 167.817 102.523 167.532 99.6465 166.99C98.9273 166.855 98.2141 166.703 97.5088 166.532C97.0402 166.419 96.842 165.904 96.6866 165.535C96.7112 165.255 96.7994 165.02 96.9219 164.81C97.0035 164.67 97.1006 164.541 97.2041 164.417C97.2559 164.355 97.3093 164.294 97.3633 164.234C97.6334 163.935 97.918 163.65 98.0821 163.29C98.2463 162.93 98.2902 162.495 98.0782 161.894C96.5935 161.751 95.1371 161.616 93.6983 161.467C93.253 161.421 92.8094 161.375 92.3672 161.325C91.2444 161.2 90.1305 161.061 89.0205 160.899C88.2807 160.792 87.5426 160.673 86.8047 160.542C85.3287 160.279 83.8534 159.963 82.3672 159.568C81.9117 159.447 81.456 159.316 80.9981 159.18C80.7093 159.094 80.4189 159.008 80.1289 158.915C79.2802 158.644 77.966 158.43 76.8457 158.249L75.8145 158.079L72.7178 157.908C71.3603 152.328 69.3714 146.385 68.6631 140.501C68.5987 139.966 68.5447 139.432 68.503 138.898C68.3358 136.764 68.3605 134.642 68.67 132.553C69.4947 126.986 72.0027 125.021 71.1094 119.754C71.017 119.209 70.8886 118.629 70.7178 118.006C72.2916 115.725 73.2685 115.102 75.6475 113.916C77.0734 114.145 78.5335 114.434 79.9571 114.699C80.0872 114.29 80.1579 113.645 80.2227 113.202C79.9035 112.411 80.4656 110.75 80.7217 109.922C81.4354 108.653 82.304 108.153 83.2422 108.149ZM216.705 186.473C217.135 189.99 217.291 194.017 217.569 197.593C217.842 201.095 218.574 207.519 218.329 210.904C218.574 207.519 217.843 201.094 217.57 197.592C217.292 194.016 217.135 189.99 216.705 186.473ZM210.167 204.123C209.852 204.154 209.53 204.181 209.209 204.2L209.691 204.166C210.171 204.127 210.644 204.075 211.088 204.026L210.167 204.123ZM194.999 176.292C194.639 176.294 194.327 176.339 194.095 176.439C194.029 176.968 194.499 177.503 194.79 178.16L194.492 178.389C193.844 178.365 193.356 178.35 192.956 178.316C192.756 178.3 192.578 178.279 192.413 178.25C192.249 178.221 192.098 178.184 191.951 178.136C191.804 178.088 191.661 178.029 191.514 177.955C191.219 177.807 190.907 177.601 190.505 177.31L189.826 176.805L189.909 177.897L189.925 178.092C189.994 180.999 188.466 182.868 186.065 184.384L186.067 184.385C185.456 184.78 184.97 185.128 184.576 185.457C184.313 185.677 184.092 185.887 183.902 186.098C183.808 186.203 183.721 186.307 183.641 186.413C183.56 186.519 183.487 186.626 183.419 186.734C182.943 187.494 182.736 188.346 182.386 189.64C182.336 189.825 182.283 190.019 182.226 190.223C182.169 190.426 182.108 190.64 182.041 190.865C181.238 194.893 181.317 197.462 183.063 200.889C183.179 201.117 183.302 201.349 183.433 201.585L183.434 201.587C184.91 201.777 195.478 202.685 196.454 202.238L196.493 202.217C196.519 201.772 196.518 201.454 196.608 201.15C196.672 200.937 196.781 200.731 196.983 200.494C197.221 200.272 197.359 200.139 197.48 199.993C197.6 199.847 197.704 199.687 197.87 199.408L197.748 199.009L196.17 199.76C195.931 199.785 195.711 199.799 195.505 199.799C194.613 199.8 193.976 199.561 193.055 199.093L192.858 198.927C192.798 198.713 192.802 198.477 192.853 198.23C192.869 198.147 192.891 198.063 192.918 197.979C192.945 197.893 192.976 197.807 193.011 197.721C193.151 197.374 193.352 197.016 193.573 196.671C193.739 196.412 193.917 196.16 194.087 195.924C194.314 195.609 194.529 195.324 194.69 195.09L194.691 195.089C195.709 192.652 196.648 190.598 196.991 187.807C197.248 185.716 198.103 181.169 196.882 179.207C196.49 178.579 195.235 178.499 194.492 178.389L194.79 178.16C194.499 177.504 194.031 176.969 194.096 176.44C194.328 176.34 194.64 176.294 194.999 176.292ZM233.001 181.043C232.896 181.247 232.747 181.448 232.53 181.658L232.652 181.533C232.767 181.409 232.859 181.287 232.934 181.165C232.958 181.124 232.98 181.084 233.001 181.043ZM212.356 179.409C212.991 179.505 213.623 179.592 214.217 179.659C213.03 179.525 211.686 179.309 210.486 179.11C211.086 179.21 211.722 179.314 212.356 179.409Z" fill="url(#paint2_radial_25_16671)"></path>
</g>
<rect x="24" y="80" width="288" height="216" fill="url(#pattern0_25_16671)"></rect>
</g>
</g>
<rect x="2" y="2" width="332" height="476" rx="14" stroke="#C92ADB" stroke-width="4"></rect>
<defs>
<filter id="filter0_d_25_16671" x="17.5596" y="22.1279" width="137.228" height="36.856" filterUnits="userSpaceOnUse" color-interpolation-filters="sRGB">
<feFlood flood-opacity="0" result="BackgroundImageFix"></feFlood>
<feColorMatrix in="SourceAlpha" type="matrix" values="0 0 0 0 0 0 0 0 0 0 0 0 0 0 0 0 0 0 127 0" result="hardAlpha"></feColorMatrix>
<feOffset dy="4"></feOffset>
<feGaussianBlur stdDeviation="4"></feGaussianBlur>
<feComposite in2="hardAlpha" operator="out"></feComposite>
<feColorMatrix type="matrix" values="0 0 0 0 0 0 0 0 0 0 0 0 0 0 0 0 0 0 0.6 0"></feColorMatrix>
<feBlend mode="normal" in2="BackgroundImageFix" result="effect1_dropShadow_25_16671"></feBlend>
<feBlend mode="normal" in="SourceGraphic" in2="effect1_dropShadow_25_16671" result="shape"></feBlend>
</filter>
<filter id="filter1_d_25_16671" x="235" y="12" width="93" height="40" filterUnits="userSpaceOnUse" color-interpolation-filters="sRGB">
<feFlood flood-opacity="0" result="BackgroundImageFix"></feFlood>
<feColorMatrix in="SourceAlpha" type="matrix" values="0 0 0 0 0 0 0 0 0 0 0 0 0 0 0 0 0 0 127 0" result="hardAlpha"></feColorMatrix>
<feOffset dy="4"></feOffset>
<feGaussianBlur stdDeviation="4"></feGaussianBlur>
<feComposite in2="hardAlpha" operator="out"></feComposite>
<feColorMatrix type="matrix" values="0 0 0 0 0 0 0 0 0 0 0 0 0 0 0 0 0 0 0.6 0"></feColorMatrix>
<feBlend mode="normal" in2="BackgroundImageFix" result="effect1_dropShadow_25_16671"></feBlend>
<feBlend mode="normal" in="SourceGraphic" in2="effect1_dropShadow_25_16671" result="shape"></feBlend>
</filter>
<filter id="filter2_d_25_16671" x="18.0801" y="370.504" width="238.474" height="38.4961" filterUnits="userSpaceOnUse" color-interpolation-filters="sRGB">
<feFlood flood-opacity="0" result="BackgroundImageFix"></feFlood>
<feColorMatrix in="SourceAlpha" type="matrix" values="0 0 0 0 0 0 0 0 0 0 0 0 0 0 0 0 0 0 127 0" result="hardAlpha"></feColorMatrix>
<feOffset dy="4"></feOffset>
<feGaussianBlur stdDeviation="4"></feGaussianBlur>
<feComposite in2="hardAlpha" operator="out"></feComposite>
<feColorMatrix type="matrix" values="0 0 0 0 0 0 0 0 0 0 0 0 0 0 0 0 0 0 0.6 0"></feColorMatrix>
<feBlend mode="normal" in2="BackgroundImageFix" result="effect1_dropShadow_25_16671"></feBlend>
<feBlend mode="normal" in="SourceGraphic" in2="effect1_dropShadow_25_16671" result="shape"></feBlend>
</filter>
<filter id="filter3_f_25_16671" x="60.4004" y="100.149" width="213.928" height="170.166" filterUnits="userSpaceOnUse" color-interpolation-filters="sRGB">
<feFlood flood-opacity="0" result="BackgroundImageFix"></feFlood>
<feBlend mode="normal" in="SourceGraphic" in2="BackgroundImageFix" result="shape"></feBlend>
<feGaussianBlur stdDeviation="4" result="effect1_foregroundBlur_25_16671"></feGaussianBlur>
</filter>
<pattern id="pattern0_25_16671" patternContentUnits="objectBoundingBox" width="1" height="1">
<use xlink:href="#image0_25_16671" transform="scale(0.00195312 0.00260417)"></use>
</pattern>
<linearGradient id="paint0_linear_25_16671" x1="168" y1="0" x2="168" y2="72" gradientUnits="userSpaceOnUse">
<stop></stop>
<stop offset="1" stop-opacity="0"></stop>
</linearGradient>
<linearGradient id="paint1_linear_25_16671" x1="168" y1="0" x2="168" y2="200" gradientUnits="userSpaceOnUse">
<stop stop-opacity="0"></stop>
<stop offset="1"></stop>
</linearGradient>
<radialGradient id="paint2_radial_25_16671" cx="0" cy="0" r="1" gradientUnits="userSpaceOnUse" gradientTransform="translate(188 156.5) rotate(95.6837) scale(106.021 378.641)">
<stop stop-color="#FFCFCF"></stop>
<stop offset="0.233771" stop-color="#C92ADB"></stop>
<stop offset="0.553786" stop-color="#C92ADB"></stop>
</radialGradient>
<clipPath id="clip0_25_16671">
<rect width="336" height="480" rx="16" fill="white"></rect>
</clipPath>
<clipPath id="clip1_25_16671">
<rect width="287.719" height="216" fill="white" transform="translate(24 80)"></rect>
</clipPath>
<image id="image0_25_16671" width="512" height="384" preserveAspectRatio="none"></image>
</defs>
</svg>
